<svg width="36" height="28" viewBox="0 0 36 28" fill="none" xmlns="http://www.w3.org/2000/svg">
<g clip-path="url(#clip0_1_2)">
<g filter="url(#filter0_d_1_2)">
<path d="M21.3867 26.8867C21.2637 26.873 21.1406 26.8594 21.0312 26.832C20.1152 26.6543 19.4727 26.1211 19.0215 25.3418C18.6934 24.7676 18.5156 24.1523 18.5156 23.4961C18.5156 21.6777 18.5156 19.8457 18.5156 18.0273C18.5156 13.9121 18.5156 9.81055 18.5156 5.69531C18.5156 4.73828 18.7754 3.87695 19.4043 3.15234C19.8691 2.5918 20.4707 2.23633 21.209 2.16797C21.25 2.16797 21.2773 2.14062 21.3184 2.12695C21.5234 2.12695 21.7422 2.12695 21.9473 2.12695C22.0156 2.14062 22.084 2.1543 22.1523 2.1543C23.1777 2.18164 24.1895 2.29102 25.2012 2.49609C27.1152 2.87891 28.8789 3.57617 30.4922 4.68359C34.2109 7.22656 36.1797 11.7383 35.5371 16.1816C35.3047 17.7812 34.7852 19.2852 33.9375 20.666C32.4473 23.127 30.3008 24.7949 27.6211 25.8203C25.8984 26.4766 24.1074 26.791 22.2754 26.8457C22.125 26.8457 21.9746 26.873 21.8379 26.8867C21.6738 26.8867 21.5234 26.8867 21.3867 26.8867ZM20.0059 14.4863C20.0059 17.4668 20.0059 20.4336 20.0059 23.4141C20.0059 23.9336 20.1562 24.3984 20.4844 24.8086C20.7578 25.1504 21.1133 25.3418 21.5645 25.3281C22.2207 25.2871 22.877 25.2598 23.5332 25.2051C24.5859 25.1094 25.5977 24.877 26.5957 24.5352C28.6328 23.8379 30.3965 22.7441 31.7637 21.0625C33.623 18.7656 34.3477 16.1406 34.0195 13.2148C33.8691 11.8613 33.4453 10.5898 32.7754 9.40039C31.6133 7.36328 29.918 5.91406 27.7988 4.94336C25.8164 4.04102 23.7109 3.69922 21.5371 3.68555C21.168 3.68555 20.8535 3.80859 20.6074 4.06836C20.1973 4.49219 20.0059 5.01172 20.0059 5.58594C20.0059 8.55273 20.0059 11.5195 20.0059 14.4863Z" fill="white"/>
<path d="M3.36719 10.0566C3.36719 10.0566 3.38086 10.043 3.39453 10.0293C3.58594 9.46875 3.77734 9.33203 4.37891 9.33203C7.87891 9.33203 11.3926 9.33203 14.8926 9.33203C15.2617 9.33203 15.5625 9.55078 15.6719 9.91992C15.7812 10.2754 15.6445 10.6719 15.3301 10.8496C15.207 10.918 15.043 10.9727 14.8926 10.9727C11.3242 10.9727 7.76953 10.9727 4.21484 10.9727C3.80469 10.9727 3.51758 10.7402 3.4082 10.3438C3.4082 10.3164 3.38086 10.2891 3.36719 10.248C3.36719 10.1934 3.36719 10.125 3.36719 10.0566Z" fill="white"/>
<path d="M3.36719 5.24414C3.38086 5.23047 3.39453 5.2168 3.4082 5.18945C3.54492 4.72461 3.80469 4.51953 4.2832 4.51953C7.81055 4.51953 11.3242 4.51953 14.8516 4.51953C15.1934 4.51953 15.4668 4.64258 15.6172 4.95703C15.7676 5.25781 15.7402 5.57227 15.5488 5.8457C15.3984 6.05078 15.1934 6.16016 14.9473 6.16016C11.3516 6.16016 7.75586 6.16016 4.16016 6.16016C3.81836 6.16016 3.51758 5.92773 3.42187 5.57227C3.4082 5.53125 3.39453 5.47656 3.38086 5.43555C3.36719 5.38086 3.36719 5.3125 3.36719 5.24414Z" fill="white"/>
<path d="M3.36719 23.8242C3.36719 23.8242 3.38086 23.8105 3.39453 23.7969C3.58594 23.2227 3.76367 23.0996 4.37891 23.0996C7.87891 23.0996 11.3789 23.0996 14.8789 23.0996C15.2207 23.0996 15.4805 23.25 15.6172 23.5508C15.7539 23.8652 15.7266 24.166 15.5215 24.4395C15.3574 24.6445 15.1387 24.7266 14.8789 24.7266C13.8262 24.7266 12.7598 24.7266 11.707 24.7266C9.24609 24.7266 6.78516 24.7266 4.31055 24.7266C3.77734 24.7266 3.55859 24.5625 3.39453 24.043C3.39453 24.0293 3.38086 24.0156 3.36719 24.002C3.36719 23.9609 3.36719 23.8926 3.36719 23.8242Z" fill="white"/>
<path d="M3.36719 14.5547C3.36719 14.541 3.38086 14.541 3.38086 14.5273C3.57227 13.9531 3.75 13.8301 4.36523 13.8301C7.85156 13.8301 11.3379 13.8301 14.8105 13.8301C15.248 13.8301 15.5215 14.0078 15.6445 14.3496C15.8359 14.9238 15.4395 15.4707 14.8379 15.457C12.3223 15.4434 9.80664 15.457 7.29102 15.457C6.29297 15.457 5.29492 15.457 4.29687 15.457C3.75 15.457 3.54492 15.3066 3.38086 14.7598C3.38086 14.7461 3.36719 14.7324 3.35352 14.7188C3.36719 14.6641 3.36719 14.6094 3.36719 14.5547Z" fill="white"/>
<path d="M3.36719 19.3672C3.36719 19.3535 3.38086 19.3535 3.38086 19.3398C3.50391 18.7793 3.8457 18.6289 4.36523 18.6289C7.82422 18.6426 11.2832 18.6289 14.7285 18.6289C14.8652 18.6289 15.002 18.6289 15.125 18.6562C15.5078 18.752 15.7266 19.1484 15.6719 19.5859C15.6309 19.9551 15.3027 20.2559 14.9199 20.2559C13.2383 20.2559 11.5566 20.2559 9.86133 20.2559C8.00195 20.2559 6.15625 20.2559 4.29688 20.2559C3.73633 20.2559 3.53125 20.1055 3.38086 19.5723C3.38086 19.5586 3.36719 19.5449 3.35352 19.5313C3.36719 19.4766 3.36719 19.4219 3.36719 19.3672Z" fill="white"/>
</g>
</g>
<defs>
<filter id="filter0_d_1_2" x="-2" y="-3" width="43" height="43" filterUnits="userSpaceOnUse" color-interpolation-filters="sRGB">
<feFlood flood-opacity="0" result="BackgroundImageFix"/>
<feColorMatrix in="SourceAlpha" type="matrix" values="0 0 0 0 0 0 0 0 0 0 0 0 0 0 0 0 0 0 127 0" result="hardAlpha"/>
<feOffset dy="4"/>
<feGaussianBlur stdDeviation="2"/>
<feComposite in2="hardAlpha" operator="out"/>
<feColorMatrix type="matrix" values="0 0 0 0 1 0 0 0 0 1 0 0 0 0 1 0 0 0 0.25 0"/>
<feBlend mode="normal" in2="BackgroundImageFix" result="effect1_dropShadow_1_2"/>
<feBlend mode="normal" in="SourceGraphic" in2="effect1_dropShadow_1_2" result="shape"/>
</filter>
<clipPath id="clip0_1_2">
<rect width="36" height="28" fill="white"/>
</clipPath>
</defs>
</svg>
