<svg width="13" height="20" viewBox="0 0 13 20" fill="none" xmlns="http://www.w3.org/2000/svg">
<path d="M5 11.17V7H7V11.17C7.66721 11.4059 8.22955 11.8701 8.58763 12.4805C8.94571 13.0909 9.07647 13.8082 8.95679 14.5057C8.83712 15.2032 8.47473 15.836 7.93366 16.2921C7.39259 16.7482 6.70769 16.9984 6 16.9984C5.29231 16.9984 4.60741 16.7482 4.06634 16.2921C3.52527 15.836 3.16288 15.2032 3.0432 14.5057C2.92353 13.8082 3.05429 13.0909 3.41237 12.4805C3.77045 11.8701 4.33279 11.4059 5 11.17ZM4 10.54C3.23743 10.9803 2.64145 11.6599 2.30448 12.4734C1.96751 13.2869 1.9084 14.1888 2.1363 15.0394C2.3642 15.8899 2.86638 16.6415 3.56495 17.1775C4.26353 17.7136 5.11946 18.0041 6 18.0041C6.88054 18.0041 7.73647 17.7136 8.43504 17.1775C9.13362 16.6415 9.6358 15.8899 9.8637 15.0394C10.0916 14.1888 10.0325 13.2869 9.69552 12.4734C9.35855 11.6599 8.76257 10.9803 8 10.54V4C8 3.46957 7.78929 2.96086 7.41421 2.58579C7.03914 2.21071 6.53043 2 6 2C5.46957 2 4.96086 2.21071 4.58579 2.58579C4.21071 2.96086 4 3.46957 4 4V10.53V10.54ZM2 9.53V4C2 2.93913 2.42143 1.92172 3.17157 1.17157C3.92172 0.421427 4.93913 0 6 0C7.06087 0 8.07828 0.421427 8.82843 1.17157C9.57857 1.92172 10 2.93913 10 4V9.53C10.9103 10.3379 11.5529 11.404 11.8422 12.5862C12.1315 13.7685 12.0538 15.0108 11.6195 16.1478C11.1851 17.2848 10.4146 18.2625 9.41075 18.9506C8.40685 19.6388 7.21712 20.0049 6 20C4.78533 19.9995 3.5994 19.6304 2.59904 18.9414C1.59868 18.2524 0.830997 17.276 0.397497 16.1413C-0.0360026 15.0066 -0.1149 13.7671 0.171236 12.5866C0.457373 11.4061 1.09507 10.3403 2 9.53Z" fill="white"/>
</svg>
