<svg width="166" height="50" viewBox="0 0 166 50" fill="none" xmlns="http://www.w3.org/2000/svg">
<g clip-path="url(#clip0_1_2)">
<rect width="166" height="50" fill="#222222"/>
<line x1="4" y1="12.5" x2="163" y2="12.5" stroke="white"/>
<line x1="162.5" y1="4" x2="162.5" y2="22" stroke="white"/>
<line x1="4.5" y1="4" x2="4.5" y2="22" stroke="white"/>
<line x1="83.5" y1="4" x2="83.5" y2="22" stroke="white"/>
<line x1="121.5" y1="4" x2="121.5" y2="22" stroke="white"/>
<line x1="44.5" y1="4" x2="44.5" y2="22" stroke="white"/>
<g filter="url(#filter0_d_1_2)">
<path d="M4.40874 32.1119C3.98118 32.1102 3.61328 32.005 3.30504 31.7962C2.99846 31.5874 2.76231 31.2849 2.59659 30.8888C2.43253 30.4928 2.35133 30.0163 2.35298 29.4595C2.35298 28.9044 2.43501 28.4312 2.59908 28.0401C2.7648 27.649 3.00095 27.3516 3.30753 27.1477C3.61577 26.9422 3.98284 26.8395 4.40874 26.8395C4.83464 26.8395 5.20088 26.9422 5.50746 27.1477C5.8157 27.3532 6.05268 27.6515 6.2184 28.0426C6.38411 28.4321 6.46615 28.9044 6.46449 29.4595C6.46449 30.018 6.38163 30.4953 6.21591 30.8913C6.05185 31.2874 5.81652 31.5898 5.50994 31.7987C5.20336 32.0075 4.83629 32.1119 4.40874 32.1119ZM4.40874 31.2195C4.7004 31.2195 4.93324 31.0728 5.10724 30.7795C5.28125 30.4862 5.36742 30.0462 5.36577 29.4595C5.36577 29.0734 5.32599 28.7519 5.24645 28.495C5.16856 28.2382 5.05753 28.0451 4.91335 27.9158C4.77083 27.7866 4.60263 27.7219 4.40874 27.7219C4.11873 27.7219 3.88672 27.867 3.71271 28.157C3.53871 28.447 3.45088 28.8812 3.44922 29.4595C3.44922 29.8506 3.48816 30.1771 3.56605 30.4389C3.6456 30.6991 3.75746 30.8946 3.90163 31.0256C4.04581 31.1548 4.21484 31.2195 4.40874 31.2195Z" fill="white"/>
</g>
<path d="M39.4126 32V31.2244L41.2248 29.5465C41.3789 29.3974 41.5082 29.2631 41.6126 29.1438C41.7186 29.0245 41.799 28.9077 41.8537 28.7933C41.9084 28.6773 41.9357 28.5522 41.9357 28.418C41.9357 28.2688 41.9018 28.1404 41.8338 28.0327C41.7659 27.9233 41.6731 27.8396 41.5554 27.7816C41.4377 27.7219 41.3043 27.6921 41.1552 27.6921C40.9994 27.6921 40.8635 27.7236 40.7475 27.7866C40.6315 27.8496 40.542 27.9399 40.479 28.0575C40.4161 28.1752 40.3846 28.3152 40.3846 28.4776H39.3629C39.3629 28.1445 39.4383 27.8554 39.5891 27.6101C39.7399 27.3648 39.9512 27.1751 40.223 27.0408C40.4948 26.9066 40.808 26.8395 41.1626 26.8395C41.5272 26.8395 41.8446 26.9041 42.1147 27.0334C42.3865 27.161 42.5978 27.3383 42.7486 27.5653C42.8994 27.7924 42.9748 28.0526 42.9748 28.3459C42.9748 28.5381 42.9367 28.7279 42.8604 28.9151C42.7859 29.1024 42.6525 29.3104 42.4602 29.5391C42.268 29.7661 41.997 30.0387 41.6474 30.3569L40.9041 31.0852V31.12H43.0419V32H39.4126ZM45.6812 32.0696C45.3299 32.0696 45.0167 32.005 44.7416 31.8757C44.4681 31.7464 44.251 31.5683 44.0903 31.3413C43.9295 31.1142 43.8459 30.854 43.8392 30.5607H44.8833C44.8949 30.7579 44.9777 30.9179 45.1318 31.0405C45.286 31.1631 45.4691 31.2244 45.6812 31.2244C45.8502 31.2244 45.9994 31.1871 46.1286 31.1126C46.2596 31.0363 46.3615 30.9311 46.4344 30.7969C46.509 30.661 46.5463 30.5052 46.5463 30.3295C46.5463 30.1506 46.5081 29.9931 46.4319 29.8572C46.3573 29.7214 46.2538 29.6153 46.1212 29.5391C45.9886 29.4628 45.837 29.4239 45.6663 29.4222C45.5171 29.4222 45.3721 29.4529 45.2313 29.5142C45.0921 29.5755 44.9835 29.6592 44.9056 29.7653L43.9486 29.5938L44.1897 26.9091H47.3019V27.7891H45.0771L44.9454 29.0643H44.9752C45.0647 28.9383 45.1998 28.8339 45.3804 28.7511C45.561 28.6682 45.7632 28.6268 45.9869 28.6268C46.2935 28.6268 46.567 28.6989 46.8073 28.843C47.0476 28.9872 47.2373 29.1853 47.3765 29.4371C47.5157 29.6874 47.5845 29.9757 47.5828 30.3022C47.5845 30.6452 47.5049 30.9502 47.3442 31.217C47.1851 31.4821 46.9622 31.6909 46.6755 31.8434C46.3905 31.9942 46.059 32.0696 45.6812 32.0696Z" fill="white"/>
<path d="M79.272 32.0696C78.9207 32.0696 78.6075 32.005 78.3324 31.8757C78.0589 31.7464 77.8419 31.5683 77.6811 31.3413C77.5204 31.1142 77.4367 30.854 77.43 30.5607H78.4741C78.4857 30.7579 78.5685 30.9179 78.7227 31.0405C78.8768 31.1631 79.0599 31.2244 79.272 31.2244C79.4411 31.2244 79.5902 31.1871 79.7195 31.1126C79.8504 31.0363 79.9523 30.9311 80.0252 30.7969C80.0998 30.661 80.1371 30.5052 80.1371 30.3295C80.1371 30.1506 80.099 29.9931 80.0227 29.8572C79.9482 29.7214 79.8446 29.6153 79.712 29.5391C79.5794 29.4628 79.4278 29.4239 79.2571 29.4222C79.108 29.4222 78.9629 29.4529 78.8221 29.5142C78.6829 29.5755 78.5743 29.6592 78.4964 29.7653L77.5394 29.5938L77.7805 26.9091H80.8928V27.7891H78.668L78.5362 29.0643H78.5661C78.6555 28.9383 78.7906 28.8339 78.9712 28.7511C79.1519 28.6682 79.354 28.6268 79.5778 28.6268C79.8844 28.6268 80.1578 28.6989 80.3981 28.843C80.6384 28.9872 80.8281 29.1853 80.9673 29.4371C81.1065 29.6874 81.1753 29.9757 81.1737 30.3022C81.1753 30.6452 81.0958 30.9502 80.935 31.217C80.7759 31.4821 80.553 31.6909 80.2663 31.8434C79.9813 31.9942 79.6499 32.0696 79.272 32.0696ZM83.9205 32.1119C83.4929 32.1102 83.125 32.005 82.8168 31.7962C82.5102 31.5874 82.274 31.2849 82.1083 30.8888C81.9442 30.4928 81.863 30.0163 81.8647 29.4595C81.8647 28.9044 81.9467 28.4312 82.1108 28.0401C82.2765 27.649 82.5127 27.3516 82.8192 27.1477C83.1275 26.9422 83.4946 26.8395 83.9205 26.8395C84.3464 26.8395 84.7126 26.9422 85.0192 27.1477C85.3274 27.3532 85.5644 27.6515 85.7301 28.0426C85.8958 28.4321 85.9779 28.9044 85.9762 29.4595C85.9762 30.018 85.8933 30.4953 85.7276 30.8913C85.5636 31.2874 85.3282 31.5898 85.0217 31.7987C84.7151 32.0075 84.348 32.1119 83.9205 32.1119ZM83.9205 31.2195C84.2121 31.2195 84.445 31.0728 84.619 30.7795C84.793 30.4862 84.8791 30.0462 84.8775 29.4595C84.8775 29.0734 84.8377 28.7519 84.7582 28.495C84.6803 28.2382 84.5692 28.0451 84.4251 27.9158C84.2826 27.7866 84.1143 27.7219 83.9205 27.7219C83.6304 27.7219 83.3984 27.867 83.2244 28.157C83.0504 28.447 82.9626 28.8812 82.9609 29.4595C82.9609 29.8506 82.9999 30.1771 83.0778 30.4389C83.1573 30.6991 83.2692 30.8946 83.4134 31.0256C83.5575 31.1548 83.7266 31.2195 83.9205 31.2195Z" fill="white"/>
<path d="M115.614 32L117.724 27.8239V27.7891H115.266V26.9091H118.838V27.8015L116.725 32H115.614ZM121.367 32.0696C121.015 32.0696 120.702 32.005 120.427 31.8757C120.154 31.7464 119.937 31.5683 119.776 31.3413C119.615 31.1142 119.531 30.854 119.525 30.5607H120.569C120.58 30.7579 120.663 30.9179 120.817 31.0405C120.972 31.1631 121.155 31.2244 121.367 31.2244C121.536 31.2244 121.685 31.1871 121.814 31.1126C121.945 31.0363 122.047 30.9311 122.12 30.7969C122.195 30.661 122.232 30.5052 122.232 30.3295C122.232 30.1506 122.194 29.9931 122.117 29.8572C122.043 29.7214 121.939 29.6153 121.807 29.5391C121.674 29.4628 121.523 29.4239 121.352 29.4222C121.203 29.4222 121.058 29.4529 120.917 29.5142C120.778 29.5755 120.669 29.6592 120.591 29.7653L119.634 29.5938L119.875 26.9091H122.987V27.7891H120.763L120.631 29.0643H120.661C120.75 28.9383 120.885 28.8339 121.066 28.7511C121.247 28.6682 121.449 28.6268 121.672 28.6268C121.979 28.6268 122.253 28.6989 122.493 28.843C122.733 28.9872 122.923 29.1853 123.062 29.4371C123.201 29.6874 123.27 29.9757 123.268 30.3022C123.27 30.6452 123.19 30.9502 123.03 31.217C122.871 31.4821 122.648 31.6909 122.361 31.8434C122.076 31.9942 121.745 32.0696 121.367 32.0696Z" fill="white"/>
<path d="M155.627 26.9091V32H154.551V27.9308H154.521L153.355 28.6616V27.707L154.616 26.9091H155.627ZM158.834 32.1119C158.406 32.1102 158.038 32.005 157.73 31.7962C157.423 31.5874 157.187 31.2849 157.021 30.8888C156.857 30.4928 156.776 30.0163 156.778 29.4595C156.778 28.9044 156.86 28.4312 157.024 28.0401C157.19 27.649 157.426 27.3516 157.732 27.1477C158.041 26.9422 158.408 26.8395 158.834 26.8395C159.259 26.8395 159.626 26.9422 159.932 27.1477C160.241 27.3532 160.477 27.6515 160.643 28.0426C160.809 28.4321 160.891 28.9044 160.889 29.4595C160.889 30.018 160.806 30.4953 160.641 30.8913C160.477 31.2874 160.241 31.5898 159.935 31.7987C159.628 32.0075 159.261 32.1119 158.834 32.1119ZM158.834 31.2195C159.125 31.2195 159.358 31.0728 159.532 30.7795C159.706 30.4862 159.792 30.0462 159.791 29.4595C159.791 29.0734 159.751 28.7519 159.671 28.495C159.593 28.2382 159.482 28.0451 159.338 27.9158C159.196 27.7866 159.027 27.7219 158.834 27.7219C158.544 27.7219 158.312 27.867 158.138 28.157C157.964 28.447 157.876 28.8812 157.874 29.4595C157.874 29.8506 157.913 30.1771 157.991 30.4389C158.07 30.6991 158.182 30.8946 158.326 31.0256C158.471 31.1548 158.64 31.2195 158.834 31.2195ZM163.653 32.1119C163.225 32.1102 162.857 32.005 162.549 31.7962C162.243 31.5874 162.006 31.2849 161.841 30.8888C161.677 30.4928 161.595 30.0163 161.597 29.4595C161.597 28.9044 161.679 28.4312 161.843 28.0401C162.009 27.649 162.245 27.3516 162.552 27.1477C162.86 26.9422 163.227 26.8395 163.653 26.8395C164.079 26.8395 164.445 26.9422 164.752 27.1477C165.06 27.3532 165.297 27.6515 165.463 28.0426C165.628 28.4321 165.71 28.9044 165.709 29.4595C165.709 30.018 165.626 30.4953 165.46 30.8913C165.296 31.2874 165.061 31.5898 164.754 31.7987C164.448 32.0075 164.08 32.1119 163.653 32.1119ZM163.653 31.2195C163.945 31.2195 164.177 31.0728 164.351 30.7795C164.525 30.4862 164.612 30.0462 164.61 29.4595C164.61 29.0734 164.57 28.7519 164.491 28.495C164.413 28.2382 164.302 28.0451 164.157 27.9158C164.015 27.7866 163.847 27.7219 163.653 27.7219C163.363 27.7219 163.131 27.867 162.957 28.157C162.783 28.447 162.695 28.8812 162.693 29.4595C162.693 29.8506 162.732 30.1771 162.81 30.4389C162.89 30.6991 163.002 30.8946 163.146 31.0256C163.29 31.1548 163.459 31.2195 163.653 31.2195Z" fill="white"/>
</g>
<defs>
<filter id="filter0_d_1_2" x="-1.64951" y="26.8395" width="12.1165" height="13.2724" filterUnits="userSpaceOnUse" color-interpolation-filters="sRGB">
<feFlood flood-opacity="0" result="BackgroundImageFix"/>
<feColorMatrix in="SourceAlpha" type="matrix" values="0 0 0 0 0 0 0 0 0 0 0 0 0 0 0 0 0 0 127 0" result="hardAlpha"/>
<feOffset dy="4"/>
<feGaussianBlur stdDeviation="2"/>
<feComposite in2="hardAlpha" operator="out"/>
<feColorMatrix type="matrix" values="0 0 0 0 0 0 0 0 0 0 0 0 0 0 0 0 0 0 0.25 0"/>
<feBlend mode="normal" in2="BackgroundImageFix" result="effect1_dropShadow_1_2"/>
<feBlend mode="normal" in="SourceGraphic" in2="effect1_dropShadow_1_2" result="shape"/>
</filter>
<clipPath id="clip0_1_2">
<rect width="166" height="50" fill="white"/>
</clipPath>
</defs>
</svg>
